<?xml version="1.0" encoding="iso-8859-1"?>
<!-- Uploaded to: SVG Repo, www.svgrepo.com, Generator: SVG Repo Mixer Tools -->
<svg fill="#000000" height="800px" width="800px" version="1.1" id="Layer_1" xmlns="http://www.w3.org/2000/svg" xmlns:xlink="http://www.w3.org/1999/xlink" 
	 viewBox="0 0 512 512" xml:space="preserve">
<g>
	<g>
		<path d="M512,108.676l-36.012,7.203c-15.35-50.305-62.193-87.003-117.45-87.003c-67.695,0-122.77,55.073-122.77,122.77
			c0,9.342,1.053,18.441,3.04,27.19L13.795,30.963L6.292,53.826c-21.371,65.134,17.236,124.475,33.433,145.498
			c-2,9.165-4.136,23.542-2.884,39.817c2.888,37.514,21.813,67.408,54.731,86.455c7.253,4.198,14.79,7.534,22.487,10.025
			c7.471,16.258,17.945,31.193,31.112,44.057c8.238,8.049,17.265,15.02,26.892,20.856c-6.827,5.576-15.539,8.928-25.022,8.928
			h-27.39c-7.602-21.434-28.071-36.831-52.079-36.831v36.831c10.154,0,18.415,8.261,18.415,18.416s-8.261,18.415-18.415,18.415
			v36.831c24.008,0,44.477-15.397,52.079-36.831h27.39c24.76,0,46.8-11.842,60.78-30.151c12.308,3.505,25.122,5.404,38.175,5.584
			c0.691,0.009,1.379,0.013,2.07,0.013c38.982,0,75.647-15.025,103.437-42.439c28.287-27.904,43.866-65.153,43.866-104.885
			c0-1.872-0.043-3.743-0.114-5.609c42.341-13.297,74.866-48.962,83.676-93.081L512,182.339l-24.554-36.832L512,108.676z
			 M383.092,157.784c-10.17,0-18.415-8.245-18.415-18.416c0-10.17,8.245-18.415,18.415-18.415c10.17,0,18.416,8.245,18.416,18.415
			C401.507,149.539,393.262,157.784,383.092,157.784z"/>
	</g>
</g>
</svg>