<?xml version="1.0" encoding="iso-8859-1"?>
<!-- Uploaded to: SVG Repo, www.svgrepo.com, Generator: SVG Repo Mixer Tools -->
<svg version="1.1" id="Layer_1" xmlns="http://www.w3.org/2000/svg" xmlns:xlink="http://www.w3.org/1999/xlink" 
	 viewBox="0 0 511.999 511.999" xml:space="preserve">
<g>
	<path style="fill:#FFDC64;" d="M325.459,415.889H186.54c-5.49,0-9.664-4.929-8.762-10.343l13.567-81.405
		c1.428-8.566,8.839-14.845,17.523-14.845h94.26c8.684,0,16.096,6.279,17.523,14.845l13.567,81.405
		C335.123,410.961,330.948,415.889,325.459,415.889z"/>
	<path style="fill:#FFDC64;" d="M503.115,415.889H364.196c-5.49,0-9.664-4.929-8.762-10.343l13.567-81.405
		c1.428-8.566,8.839-14.845,17.524-14.845h94.26c8.684,0,16.096,6.279,17.524,14.845l13.567,81.405
		C512.778,410.961,508.603,415.889,503.115,415.889z"/>
	<path style="fill:#FFDC64;" d="M147.804,415.889H8.885c-5.49,0-9.664-4.929-8.762-10.343l13.567-81.405
		c1.428-8.566,8.839-14.845,17.524-14.845h94.26c8.684,0,16.096,6.279,17.524,14.845l13.567,81.405
		C157.467,410.961,153.292,415.889,147.804,415.889z"/>
</g>
<g>
	<path style="fill:#FFC850;" d="M262.166,309.296H208.87c-8.684,0-16.096,6.279-17.523,14.845l-13.567,81.405
		c-0.903,5.414,3.273,10.343,8.762,10.343h42.811l15.292-91.748C246.071,315.575,253.482,309.296,262.166,309.296z"/>
	<path style="fill:#FFC850;" d="M439.822,309.296h-53.297c-8.684,0-16.097,6.279-17.524,14.845l-13.567,81.405
		c-0.903,5.414,3.273,10.343,8.762,10.343h42.811l15.292-91.748C423.726,315.575,431.138,309.296,439.822,309.296z"/>
</g>
<path style="fill:#FFDC64;" d="M236.632,309.296H97.713c-5.49,0-9.664-4.929-8.762-10.343l13.567-81.405
	c1.428-8.566,8.839-14.845,17.523-14.845h94.26c8.684,0,16.096,6.279,17.523,14.845l13.567,81.405
	C246.295,304.367,242.12,309.296,236.632,309.296z"/>
<path style="fill:#FFC850;" d="M173.338,202.703h-53.297c-8.684,0-16.097,6.279-17.523,14.845l-13.567,81.405
	c-0.903,5.414,3.273,10.343,8.762,10.343h42.811l15.292-91.748C157.243,208.982,164.654,202.703,173.338,202.703z"/>
<path style="fill:#FFDC64;" d="M414.287,309.296H275.368c-5.49,0-9.664-4.929-8.762-10.343l13.567-81.405
	c1.428-8.566,8.839-14.845,17.524-14.845h94.26c8.684,0,16.096,6.279,17.523,14.845l13.567,81.405
	C423.95,304.367,419.776,309.296,414.287,309.296z"/>
<path style="fill:#FFC850;" d="M350.994,202.703h-53.297c-8.684,0-16.097,6.279-17.523,14.845l-13.567,81.405
	c-0.903,5.414,3.273,10.343,8.762,10.343h42.811l15.292-91.748C334.898,208.982,342.31,202.703,350.994,202.703z"/>
<path style="fill:#FFDC64;" d="M325.459,202.703H186.54c-5.49,0-9.664-4.929-8.762-10.343l13.567-81.405
	c1.428-8.566,8.839-14.845,17.523-14.845h94.26c8.684,0,16.096,6.279,17.523,14.845l13.567,81.405
	C335.123,197.774,330.948,202.703,325.459,202.703z"/>
<g>
	<path style="fill:#FFC850;" d="M262.166,96.109H208.87c-8.684,0-16.096,6.279-17.523,14.845l-13.567,81.405
		c-0.903,5.414,3.273,10.343,8.762,10.343h42.811l15.292-91.748C246.071,102.388,253.482,96.109,262.166,96.109z"/>
	<path style="fill:#FFC850;" d="M84.511,309.296H31.214c-8.684,0-16.097,6.279-17.524,14.845L0.123,405.546
		c-0.903,5.414,3.273,10.343,8.762,10.343h42.811l15.292-91.748C68.415,315.575,75.827,309.296,84.511,309.296z"/>
</g>
<g>
	<circle style="fill:#FFF082;" cx="282.65" cy="131.643" r="17.766"/>
	<circle style="fill:#FFF082;" cx="460.305" cy="344.829" r="17.766"/>
	<circle style="fill:#FFF082;" cx="282.65" cy="344.829" r="17.766"/>
	<circle style="fill:#FFF082;" cx="104.994" cy="344.829" r="17.766"/>
	<circle style="fill:#FFF082;" cx="371.478" cy="238.236" r="17.766"/>
	<circle style="fill:#FFF082;" cx="193.822" cy="238.236" r="17.766"/>
</g>
</svg>