<svg id="Layer_1" enable-background="new 0 0 511.321 511.321" height="512" viewBox="0 0 511.321 511.321" width="512" xmlns="http://www.w3.org/2000/svg"><g><path d="m255.661 89.296c40.628 0 77.894 14.647 106.814 38.927l63.354-63.355c-46.891-41.929-106.763-64.868-170.168-64.868-68.29 0-132.492 26.594-180.78 74.881-27.835 27.836-48.444 60.967-60.923 97.113l86.294 24.307c23.955-62.506 84.578-107.005 155.409-107.005z"/><path d="m255.661 119.296c-75.192 0-136.365 61.173-136.365 136.365s61.173 136.365 136.365 136.365 136.365-61.173 136.365-136.365-61.172-136.365-136.365-136.365zm20.628 211.91h-5.663v21.355h-30v-21.355h-35.864v-30h71.527c8.382 0 15.2-6.818 15.2-15.2s-6.818-15.201-15.2-15.201h-33.193c-24.276 0-44.026-19.75-44.026-44.026 0-23.447 18.425-42.667 41.557-43.953v-21.428h30v21.354h28.512v30h-56.042c-7.734 0-14.026 6.292-14.026 14.026s6.292 14.026 14.026 14.026h33.193c24.924 0 45.2 20.277 45.2 45.201s-20.277 45.201-45.201 45.201z"/><path d="m422.026 255.661c0 56.994-28.813 107.379-72.633 137.373l43.835 78.212c15.442-9.896 29.932-21.525 43.212-34.805 48.287-48.288 74.881-112.49 74.881-180.779 0-63.125-22.739-122.746-64.314-169.545l-63.367 63.368c23.959 28.829 38.386 65.848 38.386 106.176z"/><path d="m255.661 422.026c-91.734 0-166.365-74.631-166.365-166.365 0-10.412.971-20.6 2.81-30.487l-86.243-24.292c-3.866 17.796-5.863 36.133-5.863 54.779 0 68.289 26.594 132.491 74.881 180.779 48.288 48.287 112.49 74.881 180.78 74.881 39.229 0 77.103-8.792 111.392-25.416l-43.842-78.225c-20.653 9.214-43.512 14.346-67.55 14.346z"/></g></svg>